Coordinates
version=1
nRows=13
nColumns=36
inDegrees=yes

Units are S.I. units (second, meters, Newtons, ...)
If the header above contains a line with 'inDegrees', this indicates whether rotational values are in degrees (yes) or radians (no).

endheader
time	pelvis_tilt	pelvis_list	pelvis_rotation	pelvis_tx	pelvis_ty	pelvis_tz	hip_flexion_r	hip_adduction_r	hip_rotation_r	knee_angle_r	knee_angle_r_beta	ankle_angle_r	subtalar_angle_r	mtp_angle_r	hip_flexion_l	hip_adduction_l	hip_rotation_l	knee_angle_l	knee_angle_l_beta	ankle_angle_l	subtalar_angle_l	mtp_angle_l	lumbar_extension	lumbar_bending	lumbar_rotation	arm_flex_r	arm_add_r	arm_rot_r	elbow_flex_r	pro_sup_r	arm_flex_l	arm_add_l	arm_rot_l	elbow_flex_l	pro_sup_l
      0.35000000	      1.16068368	     -2.84622037	     -3.77977896	      0.25682480	      0.96137496	     -0.21457586	      0.18988464	      7.28759846	      6.71712024	      6.96489917	      0.12156042	      6.65492799	     -8.61629216	     -6.75845063	     23.18165518	     -4.16906908	     -2.25633428	     51.91518096	      0.90609084	     -1.27688783	    -15.69336209	     -6.75845063	     -8.71074520	      6.87479454	      2.78624254	     -0.63533418	     -7.51982033	     -5.05378339	     28.66730468	    110.90232639	      2.96081459	     -4.79964933	      2.47505326	     27.79459493	    106.96779829
      0.36000000	      1.22464652	     -2.71151120	     -3.94958353	      0.26735367	      0.96171893	     -0.21330731	     -0.93183195	      7.12437290	      6.82787631	      6.36286890	      0.11105301	      7.20747468	     -8.09039852	     -6.77398632	     23.74629024	     -4.09973144	     -2.42672202	     48.90662156	      0.85358157	     -1.65105263	    -15.81226391	     -6.77398632	     -9.02345753	      6.30681914	      3.10453926	     -0.48606923	     -7.62662971	     -4.91079013	     29.20578799	    110.83830640	      3.10013082	     -4.66424783	      1.32817663	     28.02813297	    106.88002233
      0.37000000	      1.24860319	     -2.61601586	     -4.09542638	      0.27793008	      0.96171227	     -0.21210689	     -1.94932662	      7.00089206	      6.80951983	      5.88066487	      0.10263696	      7.91389636	     -7.30309592	     -6.80922688	     24.24266727	     -4.04893186	     -2.58269766	     45.69769054	      0.79757516	     -2.50771194	    -16.42796240	     -6.80922688	     -9.29694515	      5.77095889	      3.21040607	     -0.24130739	     -7.71588272	     -4.64752127	     29.73932442	    110.68627928	      3.00955541	     -4.42477698	     -0.81153153	     28.68371775	    106.82658392
      0.38000000	      1.20818709	     -2.53274567	     -4.28990287	      0.28847428	      0.96134509	     -0.21072183	     -2.85929909	      6.92437026	      7.10774432	      5.48991026	      0.09581701	      8.39868117	     -7.21885825	     -6.81780378	     24.70293771	     -4.09711882	     -2.86319468	     42.37207428	      0.73953221	     -2.95075062	    -16.04357700	     -6.81780378	     -9.48150032	      5.23905796	      3.51627836	     -0.05050811	     -7.78824756	     -4.41329965	     30.14358176	    110.70049656	      3.15384369	     -4.40590257	     -1.38724639	     28.80550967	    106.80774105
      0.39000000	      1.43748123	     -2.51546471	     -4.46252231	      0.29913540	      0.96110254	     -0.20945148	     -4.11752720	      6.87390135	      7.27973138	      5.01907095	      0.08759931	      9.09161279	     -6.69694104	     -6.85991647	     24.71512494	     -4.16186441	     -3.20082133	     38.80583244	      0.67728955	     -4.09213544	    -16.53980886	     -6.85991647	    -10.02006147	      4.73263803	      3.58501392	      0.34184015	     -7.95117431	     -3.70202869	     30.62961727	    110.64169233	      3.09116551	     -4.13902797	     -3.64534632	     29.54189829	    106.84303866
      0.40000000	      1.29891453	     -2.61614157	     -4.60592612	      0.30977789	      0.96000350	     -0.20802773	     -4.88091555	      7.01338989	      7.58357825	      4.77231213	      0.08329256	      9.53066043	     -6.70204057	     -6.86530141	     25.14859995	     -4.41505509	     -3.47370412	     35.36708278	      0.61727204	     -4.43078068	    -15.82172217	     -6.86530141	    -10.07166750	      4.39485411	      3.83008923	      0.55646761	     -8.00037384	     -3.48389656	     30.97682824	    110.67881410	      3.20498591	     -4.18881126	     -3.96500217	     29.61164528	    106.83972273
      0.41000000	      1.71802223	     -2.56006869	     -4.82487167	      0.32066191	      0.95956946	     -0.20658208	     -6.39895307	      6.88825756	      7.97873216	      4.25009985	      0.07417824	     10.21054950	     -6.48702071	     -6.87984577	     24.70766900	     -4.49795710	     -4.12050711	     31.56783105	      0.55096259	     -5.03407201	    -14.99446659	     -6.87984577	    -10.79513919	      3.77396882	      4.12072931	      0.80557399	     -8.11914429	     -2.90449463	     31.50321887	    110.76569224	      3.43008855	     -4.13902881	     -4.92972445	     29.85617781	    106.80073111
      0.42000000	      1.75928600	     -2.60253832	     -4.98849394	      0.33150119	      0.95827854	     -0.20522520	     -7.38536964	      6.91208498	      8.25761851	      3.97251652	      0.06933349	     10.81747256	     -6.41080913	     -6.88806054	     24.71103313	     -4.64008711	     -4.49161277	     27.90707381	      0.48707032	     -5.42403011	    -13.88177743	     -6.88806054	    -11.06366309	      3.29956278	      4.30706341	      1.05094467	     -8.18416517	     -2.49805670	     31.89233016	    110.84161737	      3.55511919	     -4.18256979	     -5.53783442	     30.01382154	    106.76424452
      0.43000000	      1.71037979	     -2.84461374	     -5.11968030	      0.34236480	      0.95658814	     -0.20400713	     -8.24837946	      7.16068048	      8.54434362	      3.79306444	      0.06620146	     11.31086398	     -6.28208445	     -6.89306468	     24.81692090	     -4.94744666	     -4.68609465	     24.39259975	      0.42573118	     -5.49479876	    -12.81813921	     -6.89306468	    -11.24211652	      3.10763015	      4.43981570	      1.32742123	     -8.28259626	     -2.17654562	     32.24145097	    110.91162830	      3.61795249	     -4.18779456	     -5.96181856	     30.10267237	    106.72750932
      0.44000000	      2.26751903	     -2.82408630	     -5.27794310	      0.35357230	      0.95565820	     -0.20275378	     -9.89851906	      7.01229076	      8.66217340	      3.35074528	      0.05848154	     12.18811038	     -5.67214631	     -6.90909233	     24.02200016	     -4.96257503	     -5.25444256	     20.64873360	      0.36038839	     -5.25636614	    -10.82299272	     -6.90909233	    -12.11298409	      2.46360794	      4.51894486	      1.73375595	     -8.42228424	     -1.17148624	     32.62792252	    111.08138612	      3.76240690	     -4.17029464	     -7.16540826	     30.43430560	    106.63339419
      0.45000000	      2.18459413	     -3.01510701	     -5.39937523	      0.36455487	      0.95352414	     -0.20165327	    -10.65333682	      7.18954927	      8.87978453	      3.31615325	      0.05787779	     12.84931683	     -5.51613456	     -6.91652158	     24.01805101	     -5.13495002	     -5.01075110	     17.22374358	      0.30061103	     -5.01281705	     -9.39869485	     -6.91652158	    -12.23647540	      2.15722902	      4.58704165	      2.04966662	     -8.47994158	     -0.70585797	     32.91421680	    111.04769430	      3.83498194	     -4.21414064	     -7.62504990	     30.52755488	    106.51785997
      0.46000000	      2.56993437	     -3.11715003	     -5.47343936	      0.37590180	      0.95198346	     -0.20070897	    -12.03422563	      7.19594780	      8.82606697	      3.05691732	      0.05335327	     13.69225952	     -5.11377914	     -6.92768131	     23.37724590	     -5.18739659	     -5.07078222	     13.80939163	      0.24101935	     -4.45571294	     -7.63887375	     -6.92768131	    -12.88656283	      1.70190318	      4.57001415	      2.43295836	     -8.62449890	      0.19527957	     33.15246307	    111.19767274	      3.96135565	     -4.23378812	     -8.40624669	     30.63064932	    106.45939756
      0.47000000	      2.70046876	     -3.32531452	     -5.55216411	      0.38721755	      0.94990445	     -0.19977991	    -12.97838396	      7.33981040	      8.57488207	      3.13641582	      0.05474078	     14.78305892	     -3.88464047	     -6.96747927	     23.08353881	     -5.38795645	     -4.94655373	     10.78417379	      0.18821934	     -3.47834726	     -5.74245681	     -6.96747927	    -13.24506060	      1.36718531	      4.14665160	      3.19778307	     -8.84792059	      2.27130055	     32.87458385	    111.29120373	      3.68605404	     -4.20527375	    -10.08711780	     31.20717519	    106.44020327
